<mxfile host="65bd71144e">
    <diagram id="NSt4wMtNX6ZRTYNoDcRp" name="ページ1">
        <mxGraphModel dx="753" dy="727" grid="0" gridSize="10" guides="1" tooltips="1" connect="1" arrows="1" fold="1" page="1" pageScale="1" pageWidth="827" pageHeight="1169" background="#FFFFFF" math="0" shadow="0">
            <root>
                <mxCell id="0"/>
                <mxCell id="1" parent="0"/>
                <mxCell id="166" value="" style="rounded=0;whiteSpace=wrap;html=1;dashed=1;strokeColor=#000000;fillColor=none;" parent="1" vertex="1">
                    <mxGeometry x="370" y="282.25" width="120" height="74" as="geometry"/>
                </mxCell>
                <mxCell id="109" value="" style="whiteSpace=wrap;html=1;aspect=fixed;fillColor=none;strokeColor=#2d1b1b;" parent="1" vertex="1">
                    <mxGeometry x="242" y="210" width="100" height="100" as="geometry"/>
                </mxCell>
                <mxCell id="30" value="" style="shape=actor;whiteSpace=wrap;html=1;fillColor=#FFFFFF;strokeColor=#000000;" parent="1" vertex="1">
                    <mxGeometry x="272" y="109" width="37" height="49" as="geometry"/>
                </mxCell>
                <mxCell id="41" value="" style="endArrow=classic;html=1;strokeColor=#000000;fontColor=#000000;exitX=0.5;exitY=1;exitDx=0;exitDy=0;entryX=0.5;entryY=0;entryDx=0;entryDy=0;" parent="1" source="30" target="109" edge="1">
                    <mxGeometry width="50" height="50" relative="1" as="geometry">
                        <mxPoint x="184.25" y="170" as="sourcePoint"/>
                        <mxPoint x="406.25" y="110.5" as="targetPoint"/>
                    </mxGeometry>
                </mxCell>
                <mxCell id="42" value="&lt;span style=&quot;color: rgb(84, 91, 100); font-family: &amp;quot;Amazon Ember&amp;quot;, &amp;quot;Helvetica Neue&amp;quot;, Roboto, Arial, sans-serif; text-align: start;&quot;&gt;client&lt;/span&gt;" style="text;html=1;strokeColor=none;fillColor=none;align=center;verticalAlign=middle;whiteSpace=wrap;rounded=0;fontColor=#000000;" parent="1" vertex="1">
                    <mxGeometry x="258.5" y="82" width="61" height="30" as="geometry"/>
                </mxCell>
                <mxCell id="50" value="" style="fillColor=none;strokeColor=#147EBA;dashed=1;verticalAlign=top;fontStyle=0;fontColor=#147EBA;" parent="1" vertex="1">
                    <mxGeometry x="200" y="401" width="177" height="364" as="geometry"/>
                </mxCell>
                <mxCell id="51" value="AWS Cloud" style="points=[[0,0],[0.25,0],[0.5,0],[0.75,0],[1,0],[1,0.25],[1,0.5],[1,0.75],[1,1],[0.75,1],[0.5,1],[0.25,1],[0,1],[0,0.75],[0,0.5],[0,0.25]];outlineConnect=0;gradientColor=none;html=1;whiteSpace=wrap;fontSize=12;fontStyle=0;container=0;pointerEvents=0;collapsible=0;recursiveResize=0;shape=mxgraph.aws4.group;grIcon=mxgraph.aws4.group_aws_cloud_alt;strokeColor=#232F3E;fillColor=none;verticalAlign=top;align=left;spacingLeft=30;fontColor=#232F3E;dashed=0;" parent="1" vertex="1">
                    <mxGeometry x="39" y="191" width="469" height="642" as="geometry"/>
                </mxCell>
                <mxCell id="52" value="" style="sketch=0;points=[[0,0,0],[0.25,0,0],[0.5,0,0],[0.75,0,0],[1,0,0],[0,1,0],[0.25,1,0],[0.5,1,0],[0.75,1,0],[1,1,0],[0,0.25,0],[0,0.5,0],[0,0.75,0],[1,0.25,0],[1,0.5,0],[1,0.75,0]];outlineConnect=0;fontColor=#232F3E;gradientColor=#945DF2;gradientDirection=north;fillColor=#5A30B5;strokeColor=#ffffff;dashed=0;verticalLabelPosition=bottom;verticalAlign=top;align=center;html=1;fontSize=12;fontStyle=0;aspect=fixed;shape=mxgraph.aws4.resourceIcon;resIcon=mxgraph.aws4.route_53;" parent="1" vertex="1">
                    <mxGeometry x="380" y="290" width="45" height="45" as="geometry"/>
                </mxCell>
                <mxCell id="53" value="" style="sketch=0;points=[[0,0,0],[0.25,0,0],[0.5,0,0],[0.75,0,0],[1,0,0],[0,1,0],[0.25,1,0],[0.5,1,0],[0.75,1,0],[1,1,0],[0,0.25,0],[0,0.5,0],[0,0.75,0],[1,0.25,0],[1,0.5,0],[1,0.75,0]];outlineConnect=0;fontColor=#232F3E;gradientColor=#F54749;gradientDirection=north;fillColor=#C7131F;strokeColor=#ffffff;dashed=0;verticalLabelPosition=bottom;verticalAlign=top;align=center;html=1;fontSize=12;fontStyle=0;aspect=fixed;shape=mxgraph.aws4.resourceIcon;resIcon=mxgraph.aws4.certificate_manager_3;" parent="1" vertex="1">
                    <mxGeometry x="437" y="290" width="45" height="45" as="geometry"/>
                </mxCell>
                <mxCell id="56" value="VPC" style="points=[[0,0],[0.25,0],[0.5,0],[0.75,0],[1,0],[1,0.25],[1,0.5],[1,0.75],[1,1],[0.75,1],[0.5,1],[0.25,1],[0,1],[0,0.75],[0,0.5],[0,0.25]];outlineConnect=0;gradientColor=none;html=1;whiteSpace=wrap;fontSize=12;fontStyle=0;container=1;pointerEvents=0;collapsible=0;recursiveResize=0;shape=mxgraph.aws4.group;grIcon=mxgraph.aws4.group_vpc;strokeColor=#248814;fillColor=none;verticalAlign=top;align=left;spacingLeft=30;fontColor=#AAB7B8;dashed=0;" parent="1" vertex="1">
                    <mxGeometry x="167" y="363" width="257" height="439" as="geometry"/>
                </mxCell>
                <mxCell id="73" value="" style="sketch=0;outlineConnect=0;fontColor=#232F3E;gradientColor=none;fillColor=#4D27AA;strokeColor=none;dashed=0;verticalLabelPosition=bottom;verticalAlign=top;align=center;html=1;fontSize=12;fontStyle=0;aspect=fixed;pointerEvents=1;shape=mxgraph.aws4.internet_gateway;" parent="56" vertex="1">
                    <mxGeometry x="102" y="-23" width="46" height="46" as="geometry"/>
                </mxCell>
                <mxCell id="58" value="Private subnet" style="points=[[0,0],[0.25,0],[0.5,0],[0.75,0],[1,0],[1,0.25],[1,0.5],[1,0.75],[1,1],[0.75,1],[0.5,1],[0.25,1],[0,1],[0,0.75],[0,0.5],[0,0.25]];outlineConnect=0;gradientColor=none;html=1;whiteSpace=wrap;fontSize=12;fontStyle=0;container=1;pointerEvents=0;collapsible=0;recursiveResize=0;shape=mxgraph.aws4.group;grIcon=mxgraph.aws4.group_security_group;grStroke=0;strokeColor=#147EBA;fillColor=#E6F2F8;verticalAlign=top;align=left;spacingLeft=30;fontColor=#147EBA;dashed=0;" parent="1" vertex="1">
                    <mxGeometry x="217" y="597" width="150" height="151" as="geometry"/>
                </mxCell>
                <mxCell id="59" value="" style="sketch=0;points=[[0,0,0],[0.25,0,0],[0.5,0,0],[0.75,0,0],[1,0,0],[0,1,0],[0.25,1,0],[0.5,1,0],[0.75,1,0],[1,1,0],[0,0.25,0],[0,0.5,0],[0,0.75,0],[1,0.25,0],[1,0.5,0],[1,0.75,0]];outlineConnect=0;fontColor=#232F3E;gradientColor=#4D72F3;gradientDirection=north;fillColor=#3334B9;strokeColor=#ffffff;dashed=0;verticalLabelPosition=bottom;verticalAlign=top;align=center;html=1;fontSize=12;fontStyle=0;aspect=fixed;shape=mxgraph.aws4.resourceIcon;resIcon=mxgraph.aws4.rds;" parent="58" vertex="1">
                    <mxGeometry x="46" y="49.5" width="52" height="52" as="geometry"/>
                </mxCell>
                <mxCell id="186" value="&lt;font face=&quot;Amazon Ember, Helvetica Neue, Roboto, Arial, sans-serif&quot; color=&quot;#545b64&quot; style=&quot;font-size: 12px;&quot;&gt;RDS&lt;/font&gt;" style="text;html=1;strokeColor=none;fillColor=none;align=center;verticalAlign=middle;whiteSpace=wrap;rounded=0;fontColor=#000000;strokeWidth=2;fontSize=12;" parent="58" vertex="1">
                    <mxGeometry x="41.5" y="98" width="61" height="30" as="geometry"/>
                </mxCell>
                <mxCell id="62" value="Public subnet" style="points=[[0,0],[0.25,0],[0.5,0],[0.75,0],[1,0],[1,0.25],[1,0.5],[1,0.75],[1,1],[0.75,1],[0.5,1],[0.25,1],[0,1],[0,0.75],[0,0.5],[0,0.25]];outlineConnect=0;gradientColor=none;html=1;whiteSpace=wrap;fontSize=12;fontStyle=0;container=1;pointerEvents=0;collapsible=0;recursiveResize=0;shape=mxgraph.aws4.group;grIcon=mxgraph.aws4.group_security_group;grStroke=0;strokeColor=#248814;fillColor=#E9F3E6;verticalAlign=top;align=left;spacingLeft=30;fontColor=#248814;dashed=0;" parent="1" vertex="1">
                    <mxGeometry x="217" y="437" width="150" height="155" as="geometry"/>
                </mxCell>
                <mxCell id="130" value="" style="sketch=0;points=[[0,0,0],[0.25,0,0],[0.5,0,0],[0.75,0,0],[1,0,0],[0,1,0],[0.25,1,0],[0.5,1,0],[0.75,1,0],[1,1,0],[0,0.25,0],[0,0.5,0],[0,0.75,0],[1,0.25,0],[1,0.5,0],[1,0.75,0]];outlineConnect=0;fontColor=#232F3E;gradientColor=#F78E04;gradientDirection=north;fillColor=#D05C17;strokeColor=#ffffff;dashed=0;verticalLabelPosition=bottom;verticalAlign=top;align=center;html=1;fontSize=12;fontStyle=0;aspect=fixed;shape=mxgraph.aws4.resourceIcon;resIcon=mxgraph.aws4.ecs;" parent="62" vertex="1">
                    <mxGeometry x="46" y="58" width="52" height="52" as="geometry"/>
                </mxCell>
                <mxCell id="71" value="" style="edgeStyle=none;html=1;strokeColor=#000000;entryX=0.5;entryY=0;entryDx=0;entryDy=0;entryPerimeter=0;" parent="1" source="130" target="59" edge="1">
                    <mxGeometry relative="1" as="geometry">
                        <mxPoint x="300.5" y="553.25" as="sourcePoint"/>
                        <mxPoint x="339" y="533.0409836065573" as="targetPoint"/>
                    </mxGeometry>
                </mxCell>
                <mxCell id="95" value="&lt;span style=&quot;color: rgb(84, 91, 100); font-family: &amp;quot;Amazon Ember&amp;quot;, &amp;quot;Helvetica Neue&amp;quot;, Roboto, Arial, sans-serif; text-align: start;&quot;&gt;https&lt;/span&gt;" style="text;html=1;strokeColor=none;fillColor=none;align=center;verticalAlign=middle;whiteSpace=wrap;rounded=0;fontColor=#000000;" parent="1" vertex="1">
                    <mxGeometry x="282" y="160" width="60" height="30" as="geometry"/>
                </mxCell>
                <mxCell id="97" value="" style="sketch=0;points=[[0,0,0],[0.25,0,0],[0.5,0,0],[0.75,0,0],[1,0,0],[0,1,0],[0.25,1,0],[0.5,1,0],[0.75,1,0],[1,1,0],[0,0.25,0],[0,0.5,0],[0,0.75,0],[1,0.25,0],[1,0.5,0],[1,0.75,0]];outlineConnect=0;fontColor=#232F3E;gradientColor=#60A337;gradientDirection=north;fillColor=#277116;strokeColor=#ffffff;dashed=0;verticalLabelPosition=bottom;verticalAlign=top;align=center;html=1;fontSize=12;fontStyle=0;aspect=fixed;shape=mxgraph.aws4.resourceIcon;resIcon=mxgraph.aws4.s3;" parent="1" vertex="1">
                    <mxGeometry x="54" y="494.88" width="52.25" height="52.25" as="geometry"/>
                </mxCell>
                <mxCell id="108" value="" style="shape=image;imageAspect=0;aspect=fixed;verticalLabelPosition=bottom;verticalAlign=top;image=data:image/png,iVBORw0KGgoAAAANSUhEUgAABigAAAE+CAYAAAAXs5gcAAAACXBIWXMAACxLAAAsSwGlPZapAAAAAXNSR0IArs4c6QAAAARnQU1BAACxjwv8YQUAADdySURBVHgB7d3tmePWlS7sx+fy/9EbwcARSI5goAgsR6DqCCRF0FAEkiLoUgTSRNB0BJYjaDgC+0Sgl/ug6WJVA6wCiwAB8L6va023Pjxi86sWsPbezx+S/B6ONfv6PsCtqPf1LgCv89d9/Rbepvte5VO76DHZrq/29VmW4bMs57EU9/tqcxvK++CHALzOl7md701g74/hqWZff0t3EQnchioAr7Okm2HX9PO+7uJ7tU8dPSbbVAaTTejza27rJlv5WVgFAGCE/xP6/BKNFQDAWG263ST/Dn30mGxNWTHfhD7tvt4EAICTDCj6lZUf72M1JADAWOWoK0cZ9dNjsiVVHOczpAxpv4xhLQDAswwohlXRcAMAnOPHff0U+lSRfcT6HYZtVehTdk60AQDgWQYUp92lO1MVAIBxvo28hSHlWBw9JmtWhpBV6FN2kP0aAABexIDieU26i0gAAMYpeRRt6NNEj8k6leHa16FPGUw0AQDgxQwoXqZsw68CAMAY5fx1odnD9JisjVDsYW2EYgMAjGZA8TICDQEAzlNCs78LffSYrEkV+SlD2gjFBgA4iwHFy1XRkAMAnOM+QrOHVPv6JbBshmmnlSFsGwAARjOgGEegIQDAeYRmD6ujx2TZHEc2TCg2AMArGFCM10QoHADAOYRmD2uix2SZyvBMoHu/+8jkAAB4FQOK8/wYK4gAAMYq57M7p32YHpOluYsb8EPayNcBAHg1A4rzOIMVAOA8bdzUG6LHZEmqff0Q+rQxbAUAuAgDivNVEWgIAHCO+3TntvOpKnpMrq+KYdkpb+K4OgCAizCgeJ06VhUBAJyjidDsIXX0mFxXef9VoU8Zru4CAMBFGFC83rcRaAgAcA6h2cP0mFyLUOxhP0UmBwDARRlQXEYJNPwiAACMITT7ND0mc/smbsAPaeO5AQC4OAOKyyhns/4SZ7QCAIzVpjvPnU8deswqML0qbsAPaWOYCgAwCQOKy6ki0BAA4By/Rmj2kGpf7wLTqiIU+xTH0QEATMSA4rLqCDQEADhHk25Qwafq6DGZVhmCVaFPGZ7+FgAAJmFAcXnffiwAAMYpRz21oY8ek6mUUOw69BGKDQAwMQOKaZQmX6AhAMA4QrNP02NyaUKxh7UxFAQAmJwBxTQEGgIAnKdNd947n9JjcknVvn4Mfdp0w1IAACZmQDGdKkKzAQDOsYvQ7CFV9Ji8XpUuFJt+QrEBAGZiQDGtsgVfoCEAwHjNvn4OffSYvFYJpK9CH6HYAAAzMqCYnkBDAIDzlB6qDX30mJyrDLc+D32EYgMAzMyAYh7lIkCgIQDAOEKzT9NjMlYJxTbY6vePeG4AAGZnQDEfgYYAAOO1EZp9ih6TlyrDLKHY/dp9fRUAAGZnQDGfKt0F5GcBAGCM3b6+C32q6DF5XhXh6qcIxQYAuBIDinmVVUtvAwDAWGXlt9DsfnpMniMUe1gZfgrFBgC4EgOK+Qk0BAA4T+mh3Ejsp8dkiFDsYd/HsVcAAFdlQHEd5SKhDgAAY5Sw7L9GaPYQPSZPlZ01Blf9Sih2EwAArsqA4nrexTZrAICx2gjNPkVoNgfl6K8m9GkjFBsAYBEMKK6nikBDAIBz7CI0e0jpLfWYVBGKfcqXEYoNALAIBhTXVVY1/RAAAMYq58b/FProMW9bGU69j500Q8pwsw0AAItgQHF9d3EuLADAOZoIzR5yFz3mrSq5E1XoIxQbAGBhDCiWQaAhAMB4h9DsNvTRY94eodjDhGIDACyQAcVyCDQEABivjdDsU/SYt6OOG/BD2gjFBgBYJAOK5TicFSvQEABgnHLMk9DsfnrM21Dt613oU3ZaCcUGAFgoA4plqSLQEADgHEKzh1XRY26ZUOzTSu5EGwAAFsmAYnnu0p0dCwDAOOXsfaHZ/e6ix9yqMpyrQh+h2AAAC2dAsUxNBBoCAJxDaPawJs7h35oydPo69NlFJgcAwOIZUCyXQEMAgPHaCM0+peQUVGELyrCpCX3afb0JAACLZ0CxXAINAQDOIzR7mB5zG6rIFRkiFBsAYEUMKJatSrfKDQCAcYRmD6uix1wzodinleFkGwAAVsGAYvnK1m2BhgAA45XQ7F3oo8dcL8d0DSuh2PcBAGA1DCjWoYnwOwCAc5Rz6NvQp4kec23KUEnQeb9fI5MDAGB1DCjWoxxTUAUAgDHadKHZ/w599JjrIRR7WBu5MwAAq2RAsR4CDQEAzlNCs78PffSY61BFbsgQodgAACv2x7Am1b5+SdeAAzyn3JCzYhjm4bO2fIedAt+Ep6roMZesiiHSKY5xW47ys3AX1qrONrkmWh+vF9yg39Xq6m2AS6mzrs//mKoCwFPvs67vcj0mZXi0lvfQ3NUEuIQq6/rsj6k6ACyaI57WqYlAQwCAc5Q8ijb0aaLHXJq3EYo9RCg2AMAGGFCsVzmm4IsAADBGOTZAaPYwPeZy3MUN+CFtuqOdAABYOQOK9Spn0P4SZ9ECAIxVzqP+LvTRYy5Dta8fQp9DKLYhIwDABhhQrFuV7gISAIBx7vf1fehTRY95TVWEYp8iFBsAYEMMKNavjtVVAADnaPa1C33q6DGv5V26IQWfKkPFXwMAwGYYUGzDtx8LAIBxhGYP02POr4Ri16HPfWRyAABsjgHFdpSLGYGGAADjOM/+ND3mfL6JG/BD2siNAQDYJAOK7TgEGlYBAGCMNm5+DtFjzqOK4cSQNoaIAACbZUCxLVW6M2sBABjnPkKzh1TRY06pilDsU8rwsA0AAJtkQLE9dQQaAgCco4kA3iF19JhTKe+5KvQRig0AsHEGFNsk0BAA4DxvYrX2ED3m5ZWMj89Dn5/i2CsAgM0zoNiussJNoCEAwDhCs0/TY16OUOxhbTw3AAA3wYBi2wQaAgCM16bbSUE/PebrlSHPj6FPG0NCAICbYUCxbVW6C0gAAMYp594Lze5XRY/5GlU8f6c4Zg0A4IYYUGxfWZ0l0BAAYLxmXz+HPnrM8wnFHlaGgrsAAHAzDChug0BDAIDzlB6qDX30mOOVoY5Q7H5CsQEAbtCWBxRltVsbDsrFUB0AAMYQmn2aHvPlSii2gU6/NoYTAAA3acsDinZff42LyWPvYjs5AMBYbbq+kn56zOcJxR7WxhAQAOBmbf2Ip98i3PBYlS6Q77MAADDGLvrKIVX0mKdUEYp9Shn+tQEA4CbdQgZFWan0UzgQaAgAcJ4mQrOH6DGHvY8dJkPK0O+3AABws24lJLuc9boLB3dx/i0AwDlKD+WGar+76DGfKkObKvQRig0AwM0MKIo3sXX4mEBDAIDxyjn5cs6G6TEfvI2BzZA2nhsAAHJbA4o2LiafKmfhVgEAYIw2QrNP0WN2Q5om9GnThWIDAMBNDSiKsh3/u3BQggwFGgIAjLeLvnLIrfeY1b7ehSFCsQEA+I9bG1AU9xGafUygIQDAeX6M0Owht9pjlqGMUOxhZagnwwUAgP+4xQFFITT7sbt0Z+QCADCO0Oxhd7m9HrP8eavQpywS+zEAAIQHtzqgKGwtfqyJQEMAgLEOodlt6NPkdnpModjD/hHPDQAAPW55QHG4mBSa/UCgIQDAeO2+3oQht9BjfhWh2EPadM8PAAB84pYHFIXQ7McOZ+YKzQYAGGcXfeWQrfeYVWS6nWKHEQAAg259QFHc7+v7cFDt610AABirnK//U+hTZZs9plDs04RiAwBwkgFFp4nQ7GNlC7bQbACA8Zq4ITtkiz1mGUpVoU9ZBCYUGwCAkwwoHth6/FgTZ8UCAIwlNPu0JtvpMcuw5evQp4RiNwEAgGcYUDwoF5NfRmj2sbINvwoAAGO06YYU9NtCjykUe1gbC50AAHghA4rH2gg3PCY0GwDgPOWYJ31lv7X3mFVktp1SFn21AQCAFzCg+NR9hGYfq/b1SwAAGEto9rAq6+wxLeA5rQzl2gAAwAsZUPRr9vVrOKgjNBsA4BzfRmj2kDrr6zEdgTpMKDYAAKMZUAx7E6t/jjURAggAcA6h2cOarKfHLMMU2Qr9dpHJAQDAGQwohgnN/lRZEVUFAIAx2nRDCn1lvzX0mHdxA35Im25xFwAAjGZAcVobzfYxZ+4CAJynHPMk56zf0nvMal8/hD6HRV1tAADgDAYUzytZFC4mH1QRmg0AcA6h2cOqLLPHrGKBzinlOqkNAACcyYDiZZp9/RwO6lhFBgBwjhKavQt96iyvxyyPpwp9hGIDAPBqBhQvVy4m23BQng+h2QAA45UjRNvQZ0k9plDsYbvI5AAA4AIMKF5OaPanyoqpLwIAwBhthGafsoQe85u4AT+kjZw+AAAuxIBinDbdxSSdchZvOSu4CgAAY5TQ7O9Cn2v3mFUMJ4YIxQYA4KIMKMbbRWj2sWpf7wIAwFj3EZo9pMp1eswqQrFPKUO1NgAAcCEGFOdpIjT7WB2h2QAA5xCaPazO/D1mGYpUoU9ZpHUfAAC4IAOK85WLyd/CwbcfCwCAccoRom3oM2ePWUKx69Dn1zj2CgCACRhQnK+cvyrc8LFyUSc0GwBgnMO5/vrKfnP0mEKxh7WRlwIAwEQMKF6njdDsY0KzAQDO08ZN4CFT95jVvn4MfYRiAwAwKQOK19vFxeSxKt0FJAAA49ynO+efT1WZpses0oVi0+9NDCcAAJiQAcVllBVXQrMflC34QrMBAMZrIjR7yBQ9ZslWqEKfMiz7NQAAMCEDissRmv2Y0GwAgPMIzR52yR6zZFt8HvoIxQYACHMwoLicQ2h2Gw7KCrc6AACMITT7tNJjvjY0Wyj2sDbd0U4AADA5A4rLaqOZf+pdbJsHABirjb7ylNeEZpfhhlDsfoZjAADMyoDi8nYRmn2sSncB+VkAABijHLMjNLtflfN6zCrThG1vhVBsAABmZUAxjbIi66dwUFapvQ0AAGM1EVQ85JweUyj2MKHYAADMzoBiOkKzHxOaDQBwHqvah43pMUt2hVDsfveRyQEAwBUYUExLaPZjQrMBAMaTC3DaS3rMstPCYpl+bRxRCwDAlRhQTKtNN6TgwWsCDQEAblUbfeUpp3rMchRUE/q0MfwCAOCKDCimV455siLpQQkyFJoNADDeLkKzhwz1mFWEYp9SrlPaAADAlRhQzENo9mNlFdsPAQBgrGZfP4c+fT3m+9i9O0QoNgAAV2dAMR+h2Y/dpTsLGACAcUpf2YY+d3noMcuwogp9yuKpJgAAcGUGFPMSmv1YE6HZAABjCc0+rUl3rJNQ7H5tDCcAAFgIA4p5temGFC4mHwjNBgAYr43Q7FO+Cn3aGG4BALAgBhTzK8c8CTd8UIIM30doNgDAWLt0IcfwUm9iRzcAAAtiQHEdQrMfqyI0GwDgHKWvFJrNS5RFUrsAAMCCGFBcTzkTdxcO7iI0GwDgHKWv/C0wTCg2AACLZEBxXUKzH2vivGAAgLFKnoCcM4a0ERgOAMBCGVBcl4vJT72L0GwAgLHaCM3mU226UGwAAFgkA4rrK9vxhRs+EJoNAHCeXfSVPGbHNgAAi2ZAsQz3EZp9rEq3kwIAgHFKaLa+kqKEYssmAQBg0QwolkNo9mMli0JoNgDAeE3cmL51QrEBAFgFA4plsQX7sWZfXwcAgDEOOWdtuEX/iFBsAABWwoBiWcrF5JcRmn2sHFNQBQCAMdp9vQm3pk23ExkAAFbBgGJ52gg3PCY0GwDgPLvoK2+NnTMAAKyKAcUy3acLtaNT7euXAAAwltDs21GGUbJHAABYFQOK5WoiNPtYva8fAgDAWCWPwI3rbStDqB8DAAArY0CxbLZoP1YuroVmAwCMp6/cLqHYAACslgHFsgnN/lRZGfZFAAAYo003pGBb2gjFBgBgxQwolq/d15twUMKyf4nQbACAscoxT0Kzt6UsZmoDAAAr9cewBr+mC81+G4oq3ZDiywCnvAusWxnQtwEuqexGrfb1TVi7MmxqAwAAK2ZAsR7Nvj6PLdwHdbrQbKsAYVgdAPhUySsofWUd1qosXhKKDQDA6jniaV2sJH3s2wgEBAA4h75yvUoodhMAANgAA4p1EZr9qXLsldBsAIBx2nSh2frKdWljRzUAABtiQLE+bbqLSTqH0OwqAACMUUKzvw9rIhQbAIBNMaBYp11cTB6r0g0pAAAYp+QY/BTWQCg2AACbY0CxXs2+fg4H5ZinHwIAwFgl02sXlkwoNgAAm2RAsW7lYrINB0KzAQDOU44QbcMS7SIUGwCAjTKgWDeh2Z8quyiEZgMAjFP6SaHZy9Pu600AAGCjDCjWr43Q7KeEZgMAjFdCs78LS3FYjNQGAAA2yoBiG3ZxMXmsSjek+CwAAIxxny7vgOsrr0MbAADYMAOK7SiheUKzH5Rjnt4GAICxmgjNvjah2AAA3AQDim0pAdG/hQOh2QAA5xGafT2/Rig2AAA3woBiW4QbfqqEZtcBAGCMQ/6BvnJebRzdCgDADTGg2J42QrOfeheh2QAAY7Vxs3xOQrEBALg5BhTbtIuLyWNVhGYDAJzjPkKz51L69zYAAHBDDCi2q4Tq/RQOSmj2DwEAYKwmXS4C0ylDoPsAAMCNMaDYtiZCs4/dRWg2AMA53sTq/qkIxQYA4GYZUGzbITS7DQdCswEAxhOaPY023fAHAABukgHF9rVx0fNUyaOoAgDAGG30lZdk6AMAwM0zoLgNuwjNPlbCst9HaDYAwFjlOCKh2Zfh2CwAAG6eAcXtEJr9WBWh2QAA52giNPu1ypDHcwgAwM0zoLgtJSBaaPaDu329DQAAY1n9fz6h2AAA8JEBxe0Rmv1YE6HZAABjyU84Txs5HgAA8B8GFLenTTek4IHQbACA8droK8doY6gDAACPGFDcpnLMk9DsB0KzAQDOs4vQ7Jcq/XcbAADgPwwobpfQ7Meqfb0LAABjNfv6OZwiFBsAAHoYUNy2Epq9CwdfRWg2AMA5Sl/5WxjyewAAgE8YUFBC+tpw0Ozr6wAAMEbJVfhr5CsMadIthgEAAI4YUNDGxeRT5firKgAAjNFGaPYp5TjRKgAAwH8YUFCU7fjCDR8IzQYAOM8uXRg0n9JjAgDAEwYUHAjNfqza1y8BAGCs0lcKze5XRY8JAAD/YUDBMaHZj9URmg0AcA6h2cPq6DEBAOD/MaDgqXJucBsOmgjNBgAY6xCa3YY+TfSYAABgQMEnDheTQrMflGMKvggAAGO0+3oThpQeswoAANwwAwr6lO34wg0flCDDXyLQEABgrF30lUOEZgMAcPMMKBhyv6/vw0EVgYYAAOcoOwV+Cn2q6DEBALhhBhSc0kRo9rF6Xz8EAICxmgjNHlJHjwkAwI0yoOA5wg0f+/ZjAQDwckKzTyv9pdBsAABujgEFzykXk19GaPaxtxGaDQAwVptuSEG/chSWHhMAgJtiQMFLtBFueOwQml0FAIAxyjFP+sp+ekwAAG6OAQUvdR+h2ceqfb0LAABjCc0eVkWPCQDADTGgYIxmX7+GgzoCDQEAzlEyF4Rm96ujxwQA4EYYUDDWmwg3PCY0GwDgPEKzh+kxAQC4CQYUjCU0+1NlhZtAQwCAcdp0Qwp9Zb+30WMCALBxBhSco023k4IHAg0BAMYrxzzJOesnNBsAgM0zoOBcJYvCxeSDKt0FJAAA4wjNHlZFjwkAwIYZUPAazb5+DgdlC75AQwCA8Urewi700WMCALBZfwy8TrmY/J/Yen5Qno9/plsJCADAy5UjRN9HX9lHjwkAsH1VusUp1cf6r6PfF599rD5tz6///PhrqXK06iKz3wwoeK1DaPbfM/wBuTVlhVv50O8CAMBLtelCs8uQQl/5KT0mALAEVaZdUNLm4Sb7llX7qtMNJA6Lv1/TA1dPfu1T7uOWfvIf6XrKXRYytPh9o9WEOdVZ1/tj6voQq//Wos663ltK3VJVAab0RZbpLuv6rpqzPsR3I3B5Vdb1XTim6gCXdp9pP7dNtqkMH+p0O2I/ZDnfk+/TPedXvTZYypPhzbx+Tdb1Hpm67CpZhzrrel+NqSoA0K/a17/29TbLVC7c1vLzVo8JrF2VdX0Pjqk6wKXdZ9rPbZNtqff1Ll3vvaTvx776kK4PrzIjIdlcUhOh2ccEGgIAS1Rubr//+Guzr6+zPEKzh5Ue820AAFiq0meXfq0MJUrffZd1LDCp9vVNukFFedxfZQYGFFxauZj8LRzcpXtOAACW4l0er4qafZXUC5U8ijb0+TZ6TACApanT7TApg4km6971Wu/rl3TDirtMyICCSyvBKn/NQlPhr6TsoqgDAHB9ZSXX05VQxzsqlkRfeZoeEwBgGap0N/NLT73E3cmvUaVb4DTZoMKAgim06S4meVC+pKoAAFzPXYbP9K3S9StLU3bmfheG6DEBAK6nLPApi0bKzftZjkO6oirdoOJ9Ltx/GlAwlV1cTB4rX1i/RKAhAHAdVZ7PxqqzzPys+319H/roMQEArqMMJMpg4taO3azT/bkvlolmQMGUynnGQrMfCM0GAK6hysuPcCoXWEvclt5EaPYQPSYAwHwOC0RufZFIk25QUeWVDCiYmtDsx+5ywQkjAMALlJvX1Yh/vywy+SLLIzR72F30mAAAUys98t+z/eOcXqpK93zc5RUMKJjaIdywDQdNBBoCAPPoC8V+zlKPDSp95ZcRmj2kiR4TAGAq36S7GV+FY+WaoWRTnL1YxoCCObT7ehOOCTQEAKZWLqKanKfKMkOz28g5O0WPCQBweeXm+4/hlCZnHjtqQMFcdnExeaxMF196FjQAwFhVzh9OHNQRmr02ekwAgMsqw4kmvEQ56v9dRjKgYE5l0vhTOKhyxocWAOAZVS53k/rbj7U0zb5+DX2qCM0GALgEw4nx7jLyfqcBBXNrIjT7WDkTWqAhAHBJ5YKgyuWUXmWJodnlCNE29LmLHhMA4DUMJ853lxG9qAEFcxOa/akm48MrAQD6lAuBOpd1CM2usixCs09roscEADjHa7Lc6DR54U5sAwquoU03pODBpVc6AgC3Z8oLqSrLPJqyTbeTgn56TACAccrOYYHYl1GOHX12J7YBBddSjnkSmv1AoCEA8BpVpr+QqrPMbIOSRSE0u58eEwDg5ap0O4e5nPJ8nuxFDSi4JqHZj1XxJQgAjFeluwk9hyWHZv8c+lRZ5u4XAIClaWL36aVVeSaP4o+B6yoXuP+TZQYvXkOd7kNrFSAA8FJlB0GV+ZRdFLt0O2KX5NBXVuGpkkWhxwQAGHa3r6+zHCVnrU3Xc//z418f/t5TVbpdCqU+//jXS7rXWvr0/013DfEJAwqWoORRlFV/VSiadF82VgECAM8pw4LPM7+y67MEVLdZjkNo9t/jSKM+TfSYAAB9Su/4Nte3S3cj/7cM3MwfqU43qPjLx99fU3l+d0P/8PeNVhPWpHxY/pV1vcemrPJcVGEOddb13hhTVQDYshKKfc2fM3/PMtVZxs/hJZYeE+hTZV3fZWOqDnBp95n2c9tkfm9zve+p0p81mX6BTfXxv/Mhye9Xqru+ByaDgqUok0Fbzh8INAQATimLO6YOxX7JY1hiaPYu+sohekwAgMeqDNw4n1jZ/Vt61j+lGxz8O9NqP/53yn/vTa6zE/qbvr9pQMGSCM1+rIrQbADgU1WW0yMIzV6fKnpMAICDktVVZV7l/udcg4k+9+mORp37PmxZ4FQ//ZsGFCxNucDdhYM6y1yZCABcz9yh2M8pvUqd5Sl95dKCvJeizjLOWQYAuLZvMp8yjChZvN/mOoOJY226xzF3rtwnPagBBUt0rW1GS1W+LL4OAMD1QrGf8y7LyzY4XABe++JvqZroMQGA2zbn7ol2X39Ot9hoSXaZd0hR58lxowYULFEbF5NPleOvvggAcMvKaqMlHqdUVOmODVpatkGbrq+knx4TALhlX2UebebfqTBGm3kf393xXxhQsFRlO/534aBc7JeL/ioAwC0qN5GbLFt5jEs8NmgXfeWQQ48pNBsAuEV/yTzWcFpMm25IMceC8UfPuwEFS3YfodnHqnTHJwAAt6XKekKNlxqaXXYK6Cv7VRGaDQDcnjrzLNL4PuvJ223TDVOmVufouTegYOmEZj9WR2g2ANyS0ri/z7p2US41NLuJ0OwhdfSYAMBtqTO9Nt1CmTUpGRm7TO8/x4waULAG5dzgNhwsdWUiAHB55cikKuuzxKMpD6HZbeijxwQAbsn/ZHpl98QaM3bn2EVhQMGqlA/yXGegrUW5WSHQEAC2bcmh2M9ZarZBm3kuuNZKjwkA3Io5ep5d1qnd1/9mWp8ffmNAwVq0EW54TGg2AGxbneWHYj+nXPQt8digXfSVQ/SYAMAt+CzTL6TZZd07d6c+msoOClbpPt3WKDpVBBoCwBZV+3qXbbhLtyp/aYRmD6uynfcfAECfKtP7W9Ztl2lPs6kOvzGgYG2aCM0+ttSViQDAedYYiv2cJssMzS7HZwnN7ldHjwkAbNccx5Buoc+ccsjyn9fAgII1Em74mEBDANiOsrK/yvYs9dggfeUwPSYAsFVVpreFLN1dplWV/2NAwRoJzf5UWeFWBwBYs3IU0tfZpsPOkCWGZv81DCk9ptBsAIDxtnDfss0M/hhYp3ZfbyKD4Vg5K7gMbtoAAGvzVdYfiv2cKt0N7zdZlrL9voRmO9KoX+m39ZgAAOMsbWHOOX7d158ynbb8HwMK1qx8SEpo9hKDF6+hysMFpN0lALAeVW7n5vhduguR77Msh6O1vglPVdFjAgCMtYUBRdFmYo54Yu2adIMKOmULvoENAKzHFkOxn9Ok2zGyNCVvYRf66DEBAMapwosYULAF5ZiANhwINASA9ShHNFa5PUv9c+srh+kxAQBe7i/hRQwo2AKh2Z8Smg0Ay1dWpC9xJ8Eclh6ara/sp8cEALagzfTKDtStHPM0KQMKtqJNdzHJg3JWcBUAYIluIRT7OVW6nRRLU0Kzl5aRsSS3uusHANiONtMrwwm7T1/AgIIt2cXF5LHyRfhLTGsBYGmqLPPG/DWUQc0Ssw1KaPZPoU8VPSYAsG5z7Zb9JhZ2PMuAgq1p9vVzOCjbyX4IALAUVZZ5tNE1NRGavTZ6TABgzcqAos30Ss9vYdIzDCjYonIx2YaDuyxzZSIA3KJyU7cKTy312KByhGgb+tzFsQUAwHr9I/Oo477cSQYUbJHQ7E81EWgIANd2y6HYz/l3ltm7lcckNHuY0GwAYK12mU8TQ4pBBhRsVRuh2U8JzQaA67mLUOwhbZa9uKSEZn8XhugxAYA12mVeTQwpehlQsGW7uJg8Vs69c+Y1AMyvivP6Tyn9Wptlu4/Q7CF6TABgjcoilLkXyDT7+hCLOx4xoGDrfozQ7GNV3CABgDlVcfP2lO/39WvWQWj2sCp6TABgfa6xAKVKN6RYagbb7AwouAXlYvK3cHAXW8oAYC4uPIbdZ33HXgnNHnYXPSYAsC7XXChzl24hU+mfqtwwAwpugXDDTzUR0gkAUysXG3Xo02adR3GWfnLJeRnX1sR7HgBYj7KgeZfrqdL1T3/PDS9sMqDgVrQRmv2UFZ0AMJ1vIhR7SJt13+RvI+fsFKHZAMCafJ/rK8fB3qU7+qkMK8ppMFVuhAEFt2QXF5PHBBoCwDSqGE6c8ibrPybpPsu4mF0iPSYAsCa7LCtn7It02V6HYUXJ162zYQYU3Jryob5GAM5SVel2UgAAl1HFzdlTyk39XbahidDsIVX0mADAepQFNEvc3VuGFWVndrm++Fe6narffvz7m2FAwS1qIjT7WMmiEGgIAJdRgvaq0KcsEmmyLUKzh+kxAYC1aLP83bFlAVTpr8ruirKzYjMDCwMKbtEhNLsNB82+vg4A8BrlZuznoU+bbR57JTT7tCbdhTQAwNKVU1d2WY++gUXZaVEGFnVWxICCW9Wm277Fg/JFXAUAOIdQ7GFttn0Tv42+8pRy1FMVAIDlW/OC5jKwqNMNLA5HQq1iYGFAwS3bRWj2MYGGAHCesqX6xzDkFnaulqO9hGb302MCAGtx2B3bZv2eDix+//hrk4UNLAwouHVCsx+r0p1fBwC8TBU/O08pN+1vJfurSTeo4FNVfE4AgHVo0y2w2eLu3zrdsbRlUPEh3U7XckzUVReSGFBAt9VJaPaDOt10FQB4nlDsYVsMxX5OOeqpDX3qCM0GANah3Cf8c7bd11X7uku3iOQQuH2XKzCggI7Q7MfK0EZoNgCcVgb6QrH7ten6iVsjNPu0JnpMAGAd2mznuKeXKDspyo6Kw86KLzITAwrotOmGFDwox1/N9mUEACtTQrFv8Qb8S7TpLuZuVRt95Smlx6wCALB8bbqdFD/ndlTpdlL8/WPdZWIGFPCgbN8Smv2gnD/3SwQaAsBTQrFPszM12UVo9hCh2QDAmpSdsXe5zXuG5brnsKviLhMtMjGggMeEZj9WRaAhAByr4mfjKeXCTbZXp8ltrbYbo4rPEQCwLuWe4Z9ymwtxqnSDirLI5OKZYgYU8KlyXMMuHNQRmg0AB6Upr0KfssjDzpLHSl/Zhj519JgAwLq06YYUZVHOLWaOVekW4Rx2VFyEAQX0exMXk8e+jXO2AaDcTK1Cn39Er9BHaPZp5T0jNBsAWJuyKOfWsimOVXk4+qnKKxlQQL823fnJLiYflC1cQrMBuFXl56Ab8P3afX0VhrQRmn1KucDXYwIAa9Om20VQdlTc8qCiDCledeyTAQUMK+cnCzd8cAjNrgIAt6VOt5WZfmWHQBtO2eU2gxVfQo8JAKxZG4OKJq/YTWFAAacJzX6sikBDAG5LlW77Mv3KTfc2vETpK4Vm96vicwYArFubx4OKNrelSpfXN3pntQEFPE9o9mNlC75AQwBuQVnZLRR7WNlpKhR7nNJX/hb61NFjAgDr1+ZhUFEybne5HVW6hc2jjnwyoICXKecGt+FAaDYAt6A01lXoU0KxmzBWyTfTVw7TYwIAW3Kf7jjUMqwoO49vZaFKkxFDCgMKeJnDxaTQ7AdlhZtAQwC2Sij2sDZCsV+jTbeajn7ls6fHBAC2pE238/jPuZ2dFU1eeISnAQW8XJlyCjd8TKAhAFtUbr43oU9ZrCEU+/V20VcOEZoNAGxZm4edFX/4+GvJv91le+7ygp0UBhQwzn2EZh+r0l1AfhYA2IYqzsE/peROtOESyio6fWW/Kl2PCQCwdbt0O7fLoOL/y/YGFk2eGVIYUMB4QrMfK1vwR4XfAMBCCcU+TSj25TURmj2k9JiGhQDALSm7lXd5PLAoR86XgcWae8ZmX/XQPzSggPMIN3xMoCEAW1Buvlehzy6OvZqC0OzT9JgAwC0rveKv6fqhkl+x5oHF4BGeBhRwnsP5y0KzH5QVbnUAYJ3KbsCvQ582Qp2n1Ka70KSfHhMAoDM0sPg5yx9YlN3qvaHZBhRwvjbCDZ8qXzRVAGBdhGIPE4o9j3JBqa8cpscEAPjUYWBxl25g8ad0C4t+zTLV6R7rIwYU8Dr36c5jplNFaDYA61JlYCUP/0+5ad6GOQjNHlZFjwkA8Jw23b3KsqviD3nYXbEkZXfso57OgAJer8lyJ5PXINAQgLU4hGK76dmvLMK4D3Mq2/WFZvcrPebbAADwUofdFeUoqLKzYpfrK9dejzLGDCjgMsqHvA0HdxFoCMDyOTZmWLmYacI1CM0eJjQbAGC8chTUfbqjW8sxUNfeVfFNjhaJGVDAZQjN/pRAQwCWrKzE/ir0aSMP4ZradEMKfWU/PSYAwPnadAuLy6DiWsfWP9pFYUABl9Om20nBg3JWcBUAWJa72B0wRCj2MpRjnuScDdNjAgC8TpvumuhaOyq+OfzGgAIuqxyH4GLygbO9AViaKrKSTnFs5XIIzR5Wekuh2QAAr9emW8BVrgPm3MFb+ri6/OaPAS6t2dfncWzEQZXuRpDdJfP7y77+b4A5lAG141iWr4rB+SllkcWvYUnK1vfSV9bhqRKarccEALiM+3Qh2uV6qco8yr3TnQEFTKNcKJWLpioUd+kmsnaXzOvHAHNp0zVzLFu5mVmFPkKxl6v0lXNeKK7JXfSYAACX0qY77nWu3rMsrP3WEU8wDaHZn2pi9R8A1yMUe1gbq9CXrI3Q7FOa6DEBAC6lzXz3NKt9fWZAAdNp011M8kCgIQDXUALYmtDHoop1KKHZ34UhekwAgMtpM98CptqAAqa1iy3nx4RmAzC3KoYTpwjFXo/7CM0eoscEALiscgTsLtP7woACptfs6+dwUO3rXQBgelXctDxFKPb6lNDsXehTpcuZAQDgMuZYdP3fBhQwj3Ix+Vs4KGeAvw0ATKsMxKvQ5z52lqxVOUK0DX3uoscEALiUXaY/CtYOCphJ+TALN3ysibBSAKZTblLWoU8beQZrpq88rYkeEwDgUv430xKSDTNqIzT7KStbAZiCUOxhbYRib4HQ7NP0mAAAl9FmWgYUMLNdXEweE2gIwKVV+/oxDCl9SBu24D7znAu8RnpMAOCpf+3r9wlrq9pMy4ACrqDcNBGa/aDa1y8BgNer0t2UpJ9Q7O1pIjR7SJVuJwUAcFlrXQAw9Q7iKpzFgAKuQ2j2Y3UEGgLweuXmexX6/BTHXm2V0OxhJYtCjwkAl/VfmVabaRhQLNQfA1zDIdywrPKsQtGk+yFkdwkA5/hhX5+HPm0MJ7as9JUlV+TvcaRRnyZ6TACm81mm/fn77ywvO2yt/cY/9/VFplP+f++yPZO/3gYUcD3tvt7EURTHyvFX/4jdJQCMU0Kxvw192gjFvgVtunwRRxr1Kz3m32KnCQCXV3brTfnzd5eul1uSKtNqM42p++G/ZJtZeFWm9W9HPMF17SI0+1iZyv4Sq/8AeLmyUkko9rCyGKINt+A+QrOHCM0GYK2qLMvUO0aKqQYJUy+GLdclW+w1pt6l3hpQwPWVmyo/hYMqQrMBeJkqfmacUm5W78ItaSIIfUgV3xcArM/SbnhPeUTSQZtptJlWea3usi3lz1RnWnZQwEI0cazRsTrdWeIAcIpQ7GFCsW+XXTPD6ugxAbisNtOaY8fCGHWmNWXmxhz33f6Sbfkq07ODAhbiEJrdhoNv4zxxAIYJxR7Wxs/QW3YIzZY70q98Nr4OAFzGHD9v6yzH/2RaUw4R2kz/etVZ1uv1Wm8zvX8aUMBytOmGFDwoX4RzbB8EYF3Kzwc34Pu1WV6QIvNr0+2koF85YlWPCcAl3NKAosr0j+UfmdbfMr0Smr6FLIq7zLNbfWdAActSJsVCsx8cQrOrAECn3FRswhA7MjkoR6AJze536DGFZgPwWm2mH1IsZedfnentMq1dpldlnp0HU6oy35/hNwMKWB6h2Y9V6abPAFBFyO0pZZGDTCuONfv6OfSp4vsEgMtoM605gopfYo4b1lP3sr9mHms/UrIcp1tleuX1FpINC1W+yNxgeFBHoCHArSsXZu9jV92Qsrjhx8CnSl/Zhj519JgAa1L6wbt0PU/pCz98rL9//Ovy9+vMb+pjiYprr8i/y/R9eJvpe5Y28/VFaz1SsrzX5gjHLv5z7/P3jVYTWLcq3Q/atXzm5qgpzhuvk/yulFKvrDpMrdxEXNN7Ys6yqIHnVPv6V9b1vp6zZNpw66qs6zM7puqwBXW6AcRLX/cP6W6yVpnHt0l+n6Gu+fPqQ6b/873LPJokv89Upf+qsx5vM99z8+g7+veNVhNYvzJpdTH5uC49fa6TWR63UmrbVYcpvc263g9z1ofYVcLL1FnXe3vOKv220GxuWZV1fWbHVB3WrOyYeM0ilQ/pVv5P7Yskv89Q5edVlfm9zbY+r1Xm/R4qtfTFEOWz9i7zPicfjh/A7xutJrANc03i11IfctkfyHUyy+NWSm276jCVOut6L8xdbqoyRpN1vb/nrA8x7ON2VVnX53VM1WGtqnS7RC/xPnib6c21uPRD5v159VXm+3PN6X3m+XMd17sss9eoc50TXN4dP4jfN1pNYDvKuXVr+vxNXX/P5dTJLI9ZKbXtqsMUqjju8FQ5loZz3Gdd7/M565I9JqxJlXV9VsdUHdaoyuV7wHeZ1n1y0cd7qj5knhvdc57q8S7zqjPf6/X0tbvLMrx2h9Jrqzp+ML9vtJrAtrzPuj6DU9elAg3rZPLHqpTaftXh0krD/CHreh/MWU3gPOWzVW7Er+n9PmcJzeYWVVnX53RM1WFtqkzXA075HV8nkzzmofqQaYcUX2feI8erzO995n3Nnr5+d+n6srmV/+bbXPdI+fdPH9TvG60msC1V3Kh5WpdYOVpn2seolLqNqsOl3Wdd74E5Syg2r1VFztmpsjuJW1NlXZ/RMVWHtbnPer/jr/GztQxdqlxOuXl9n8z2+Eu9y3XUmf/1elrlPfMu039Xldf1LstZ/Fw/fYBLeFBTVBPYHqHZL/hSG6nOtI9PKXUbVYdLept1vf5z1oc4J5/LqLOu9/7cJd+FW1JlXZ/PMVWHNbnL9O+Jck9lqlXrTTL54++rD3l9vsE1V9VXuZ73uc5rNvTe/CXdEK3O696n5X9b8kPefvwzLule4runD/YPH//BFn0fQwq26S7Xmy4vUbuvLz/+eo46PVvLAEYq30O7cAmlkf4lDPlTzv+ZB0+VC2BHGvVr87oeE9akyvwBtXPRo61LeR9Wmd5U9wwPR5Re49ieg7LT9m/p3vdthnfeVumG8Z+nuy9S5zru9/Um11OegyVnUP073Wv474/1z4F/77/Tve+qj3XN9+Bzeq9nljI9uXQ1ge0Smv24yg+Tc79864kfm1LqNqoOl1DFcYanyrEzTEFfOVyv6TFhTaqs67M5puqwFnXme19scRfFc3/eD0e1pMdW5fr0QvNVkx7/J8AalRsUu3BQJt5W/wGsW7lIfB/HFw0pK/1+DFxeE7kmQ0qP+TYAzOGrzKf0nVMd5Vf6tX9nWY5X1ldZjtLftrm+co9NLzS9NgYUsDl/jS3nx+5iZSnAmr2L4cSQXewOZjrlJoq+cti30WMCzOHzzGuqgUj5ufp9eE6bZfW3pRda2mBpS8pz++XQPzSggPU6XEz6An1QdlHUAWBtygrlOVfNrUmb657Ly21o4312ih4TYHpT7WgYUmU6ZRfFLpzyZZaljV5oSid3yxhQwLqVLWjfhWMlWLUKAGtRBhNN6HNYadQGpreLvvIUu7wApjV35s9/ZVrlZrcFpf2WcrTTU7/G7pcpPHtUrQEFrN99fIEeK03NLxFoCLAGVbqbfvRb6sUb21UuHn8KfaroMQF4uTbdqRc8VvqMJsvVxD22SyrPZfPcv2RAAdvQxPbBY0KzAZavSheK7WZfP6HYXIugyGF6TIDpbHG3wS5udh/7R9aR69TE63YJLx5GGVDAdgg3fOwu3ZnmACxTuclXhT5le3kTuB595bC7CM0GmMLcA4p/ZB5N3OwuyvNdZz2aeN1eozx3L+6XDChgOw7nVDvj8EETgYYASyQUe1gbOQBcXxvHUpwiNBvg8v6Wec25W7DJbd/sPgwn1na/qom+/BzlOWvG/A8MKGBb2vjyfEpoNsCy3MXugCFCsVmScuNGXzlMjwlwWXMfL7jLvJrc5pCi7Ayus97FtOXI1T9Ff/4SbbprmdHH1BpQwPbcxza0Y+Vsc2ecAyxDFee3n1JuBreB5RCaPUyPCXBZ95nvJvYu1+m5mtzW/ZrSQ5QdmWs/6aNNd+P95zBkt68/58zBnwEFbFOTbkpNp9rXuwBwTVXczDulXKzeB5annB+8C32qGLoCXEq5iT3XDeBrDgmadDdy22xXeS3fZFuZTW26neBvYkHRsfJal0VWrz5y/veNVhO4beUG0Ies63M7db3teZ7qBT5OpdT6qg7PeZ91vaZz1i+BZauirzxVbwPrVmVdn7kxVYc1Kfcx/pVp3xPvsgxVusUpS/q8XKLeZ/tHIJb3aZN1vS5T1I+54OKzNf3Bx1QToMr0P9zXVk9DWeuFPk6l1LqqDqe8zbpezznrQ+wqYR2+iL7yVNWB9aqyrs+bz+a23WW698OHLO/m+V22sQjgXx//LLekyjaHTM/V+1z4c+SIJ9i2Nt32Mx68i0BDgDl9EwtHhhxCsdd+Li+3oYSXyjkbJjQb4DLuM83Pm9JvlTyENstyny6Eea1HB5Xntbxe5c9wn9vSphvKlD97OZ5s6z39fbprl1JtLmwNk5lzqglw0GRdn9+p60MeVqvWC3+sSql1VB36VFnX6zh3fRVYn7Kdf02fsznrQ+yIYp2qrOuzNqbqsFZNLvc+KKv7v8g63GUdOyrKc9rEz71j5bm429ffs/zXb3Gv85qelDHVBDh2n3V9hqeu9x+fl3oFj1Uptfyqw1NVnFl/qprAer3Puj5vc5ZMGdaoyro+Z2OqDmtWQpZf+x74kHXucKuzzPs479PdhDeYOK0MxMqijvL+W9pr+Fz96+NjrzOjNT1BY6oJcExo9qf1NgYUSqnLVB2eKsfBrOk1nLPeBdZNX3m63gbWpcq6PmNjqg5rV+3r14x/7beywv+wKv8+18uCep9uWGQocZ4yrCjPX3kel5rnVR5bkyt+Zy7xSblENQGeqiLc8Gm9W9FjVUott+pw7G3W9frNWR/i4o5tEJp9uhzhxppUWdfna0zVYSvqdDfpP+T0a/4+2z56qE53s7vs2JviKKHys708h4cV9PrWy6vTvYb3uc5xUB/S3Qv7Ngt5jf+Q7oFtUQloaQI8VefheCMALqMEhe1CUUKxfwx92kwUKgdXchc7goaUoMw/x+eddajS3bDaIj3aNpUhebmpWh39vfK9u8v2g4qfKs/D8fNR6r/y+Ln57GP9Ow/PT/vx139+/H35+7/Fz61refoa/nceXsPPnlSf49e2/Np+/PX/fvx9qd+e/HuL8ccAt2aXboD3NgBwWYezVun3XVz0sS336T7334Snyg2EsiioDClu7WYZwNR+CweHwQzrdtPv6bKDos42tXEBCKd8FVv1AC5lF31H+ZlShhP/Hfr8bwxv2K5yRIC+sl+54fBrYNnK53erx5LtokcDWLT/Hz1zDCnO3mHgAAAAAElFTkSuQmCC;" parent="1" vertex="1">
                    <mxGeometry x="259.25" y="226.82999999999998" width="71" height="14.34" as="geometry"/>
                </mxCell>
                <mxCell id="111" value="" style="endArrow=classic;html=1;strokeColor=#000000;fontColor=#000000;exitX=0.5;exitY=1;exitDx=0;exitDy=0;" parent="1" source="109" target="73" edge="1">
                    <mxGeometry width="50" height="50" relative="1" as="geometry">
                        <mxPoint x="218.05" y="263.75" as="sourcePoint"/>
                        <mxPoint x="291.74548311629155" y="342.00052379867907" as="targetPoint"/>
                    </mxGeometry>
                </mxCell>
                <mxCell id="140" value="" style="endArrow=classic;html=1;strokeColor=#000000;fontColor=#000000;entryX=0.5;entryY=0;entryDx=0;entryDy=0;entryPerimeter=0;" parent="1" source="73" target="130" edge="1">
                    <mxGeometry width="50" height="50" relative="1" as="geometry">
                        <mxPoint x="431" y="425" as="sourcePoint"/>
                        <mxPoint x="405.16560133187454" y="495.0005908956616" as="targetPoint"/>
                    </mxGeometry>
                </mxCell>
                <mxCell id="148" value="" style="sketch=0;points=[[0,0,0],[0.25,0,0],[0.5,0,0],[0.75,0,0],[1,0,0],[0,1,0],[0.25,1,0],[0.5,1,0],[0.75,1,0],[1,1,0],[0,0.25,0],[0,0.5,0],[0,0.75,0],[1,0.25,0],[1,0.5,0],[1,0.75,0]];outlineConnect=0;fontColor=#232F3E;gradientColor=#F54749;gradientDirection=north;fillColor=#C7131F;strokeColor=#ffffff;dashed=0;verticalLabelPosition=bottom;verticalAlign=top;align=center;html=1;fontSize=12;fontStyle=0;aspect=fixed;shape=mxgraph.aws4.resourceIcon;resIcon=mxgraph.aws4.amplify;" parent="1" vertex="1">
                    <mxGeometry x="271.75" y="248" width="40.5" height="40.5" as="geometry"/>
                </mxCell>
                <mxCell id="164" value="" style="endArrow=classic;html=1;strokeColor=#000000;fontColor=#000000;entryX=1;entryY=0.5;entryDx=0;entryDy=0;entryPerimeter=0;" parent="1" source="163" target="97" edge="1">
                    <mxGeometry width="50" height="50" relative="1" as="geometry">
                        <mxPoint x="416" y="396.99947620132093" as="sourcePoint"/>
                        <mxPoint x="416" y="529" as="targetPoint"/>
                    </mxGeometry>
                </mxCell>
                <mxCell id="168" value="" style="endArrow=classic;html=1;strokeColor=#000000;entryX=0;entryY=0.5;entryDx=0;entryDy=0;" parent="1" target="166" edge="1">
                    <mxGeometry width="50" height="50" relative="1" as="geometry">
                        <mxPoint x="293" y="319" as="sourcePoint"/>
                        <mxPoint x="340" y="276" as="targetPoint"/>
                    </mxGeometry>
                </mxCell>
                <mxCell id="172" value="" style="endArrow=classic;html=1;strokeColor=#000000;fontColor=#000000;exitX=0;exitY=0.5;exitDx=0;exitDy=0;exitPerimeter=0;" parent="1" source="130" target="163" edge="1">
                    <mxGeometry width="50" height="50" relative="1" as="geometry">
                        <mxPoint x="240.75" y="544.5017335766424" as="sourcePoint"/>
                        <mxPoint x="196" y="544.5050000000001" as="targetPoint"/>
                    </mxGeometry>
                </mxCell>
                <mxCell id="163" value="" style="sketch=0;outlineConnect=0;fontColor=#232F3E;gradientColor=none;fillColor=#4D27AA;strokeColor=none;dashed=0;verticalLabelPosition=bottom;verticalAlign=top;align=center;html=1;fontSize=12;fontStyle=0;aspect=fixed;pointerEvents=1;shape=mxgraph.aws4.endpoint;" parent="1" vertex="1">
                    <mxGeometry x="143" y="497.25" width="47.5" height="47.5" as="geometry"/>
                </mxCell>
                <mxCell id="182" value="&lt;font face=&quot;Amazon Ember, Helvetica Neue, Roboto, Arial, sans-serif&quot; color=&quot;#545b64&quot; style=&quot;font-size: 12px;&quot;&gt;Amplify&lt;/font&gt;" style="text;html=1;strokeColor=none;fillColor=none;align=center;verticalAlign=middle;whiteSpace=wrap;rounded=0;fontColor=#000000;strokeWidth=2;fontSize=12;" parent="1" vertex="1">
                    <mxGeometry x="263" y="283" width="61" height="30" as="geometry"/>
                </mxCell>
                <mxCell id="183" value="&lt;font face=&quot;Amazon Ember, Helvetica Neue, Roboto, Arial, sans-serif&quot; color=&quot;#545b64&quot; style=&quot;font-size: 12px;&quot;&gt;Route53&lt;/font&gt;" style="text;html=1;strokeColor=none;fillColor=none;align=center;verticalAlign=middle;whiteSpace=wrap;rounded=0;fontColor=#000000;strokeWidth=2;fontSize=12;" parent="1" vertex="1">
                    <mxGeometry x="370" y="329" width="61" height="30" as="geometry"/>
                </mxCell>
                <mxCell id="184" value="&lt;font face=&quot;Amazon Ember, Helvetica Neue, Roboto, Arial, sans-serif&quot; color=&quot;#545b64&quot; style=&quot;font-size: 12px;&quot;&gt;ACM&lt;/font&gt;" style="text;html=1;strokeColor=none;fillColor=none;align=center;verticalAlign=middle;whiteSpace=wrap;rounded=0;fontColor=#000000;strokeWidth=2;fontSize=12;" parent="1" vertex="1">
                    <mxGeometry x="429" y="329" width="61" height="30" as="geometry"/>
                </mxCell>
                <mxCell id="187" value="&lt;font face=&quot;Amazon Ember, Helvetica Neue, Roboto, Arial, sans-serif&quot; color=&quot;#545b64&quot; style=&quot;font-size: 12px;&quot;&gt;S3&lt;/font&gt;" style="text;html=1;strokeColor=none;fillColor=none;align=center;verticalAlign=middle;whiteSpace=wrap;rounded=0;fontColor=#000000;strokeWidth=2;fontSize=12;" parent="1" vertex="1">
                    <mxGeometry x="49.63" y="541" width="61" height="30" as="geometry"/>
                </mxCell>
                <mxCell id="188" value="&lt;font face=&quot;Amazon Ember, Helvetica Neue, Roboto, Arial, sans-serif&quot; color=&quot;#545b64&quot; style=&quot;font-size: 10px;&quot;&gt;ECS&lt;br&gt;(Ruby on Rails)&lt;/font&gt;" style="text;html=1;strokeColor=none;fillColor=none;align=center;verticalAlign=middle;whiteSpace=wrap;rounded=0;fontColor=#000000;strokeWidth=2;fontSize=12;" parent="1" vertex="1">
                    <mxGeometry x="288" y="547.13" width="76" height="30" as="geometry"/>
                </mxCell>
            </root>
        </mxGraphModel>
    </diagram>
</mxfile>